<svg xmlns="http://www.w3.org/2000/svg" width="196.331" height="96.096" viewBox="0 0 196.331 96.096">
  <g id="header" transform="translate(-137.669 -54.737)">
    <path id="Trazado_9" data-name="Trazado 9" d="M170.674,124.779h-3.493l-11.213,20.878a1.9,1.9,0,0,1-1.683,1.023h-.2a1.866,1.866,0,0,1-1.74-1.056l-11.353-20.845h-3.326l12.364,22.384a4.7,4.7,0,0,0,1.458,1.857,3.6,3.6,0,0,0,1.813.392h2.276a2.641,2.641,0,0,0,1.445-.373,4.939,4.939,0,0,0,1.428-1.867Z" fill="#fff"/>
    <path id="Trazado_10" data-name="Trazado 10" d="M191.194,128.5l11.389,20.914h3.33l-12.329-22.386a4.771,4.771,0,0,0-1.485-1.84,3.474,3.474,0,0,0-1.784-.408H188a2.535,2.535,0,0,0-1.427.383,5.17,5.17,0,0,0-1.452,1.871l-12.215,22.38h3.49l11.214-20.877a1.9,1.9,0,0,1,1.685-1.024h.235a1.888,1.888,0,0,1,1.664.987" fill="#fff"/>
    <path id="Trazado_11" data-name="Trazado 11" d="M190.031,139.784l5.171,9.628h2.417l-6.277-11.291a2.217,2.217,0,0,0-.688-.852,1.617,1.617,0,0,0-.825-.188h-1.071a1.18,1.18,0,0,0-.661.177,2.4,2.4,0,0,0-.671.865l-6.188,11.289h2.416l5.129-9.615a.662.662,0,0,1,.587-.357h.082a.658.658,0,0,1,.579.344" fill="#fff"/>
    <path id="Trazado_12" data-name="Trazado 12" d="M229.2,73.31a8.556,8.556,0,0,1-4.567-1.124c-2.076-1.27-3.448-3.609-4.776-5.872-.459-.783-.934-1.592-1.427-2.336-1.021-1.541-1.752-2.872-2.4-4.047-1.978-3.6-2.721-4.946-7.352-3.913l-.206-.925c5.329-1.186,6.351.673,8.388,4.382.637,1.159,1.359,2.472,2.359,3.98.505.765.988,1.586,1.454,2.38,1.267,2.162,2.58,4.4,4.453,5.544,2.134,1.306,4.694,1.023,6.954.775a61.066,61.066,0,0,0,7.527-1.246,62.046,62.046,0,0,1,7.628-1.263l.1.942a61.324,61.324,0,0,0-7.528,1.246,61.788,61.788,0,0,1-7.627,1.263,27.362,27.362,0,0,1-2.986.214" fill="#fff"/>
    <path id="Trazado_13" data-name="Trazado 13" d="M229.205,77.368a8.525,8.525,0,0,1-4.549-1.118c-2.067-1.264-3.437-3.6-4.762-5.858-.46-.783-.934-1.593-1.427-2.337-1.021-1.54-1.752-2.871-2.4-4.045-1.988-3.619-2.731-4.971-7.394-3.933l-.189-.848c5.3-1.183,6.316.672,8.344,4.363.638,1.158,1.359,2.472,2.359,3.983.507.763.989,1.584,1.454,2.377,1.271,2.166,2.585,4.407,4.467,5.559,2.145,1.313,4.714,1.029,6.98.781a61.278,61.278,0,0,0,7.53-1.248,62.122,62.122,0,0,1,7.624-1.26l.1.862a61.269,61.269,0,0,0-7.532,1.247,62.061,62.061,0,0,1-7.624,1.262,27.008,27.008,0,0,1-2.979.213" fill="#fff"/>
    <path id="Trazado_14" data-name="Trazado 14" d="M229.205,81.427a8.487,8.487,0,0,1-4.527-1.112c-2.059-1.26-3.427-3.591-4.749-5.845-.46-.783-.936-1.594-1.43-2.339-1.02-1.538-1.75-2.869-2.395-4.042-2-3.638-2.747-5-7.437-3.953l-.173-.77c5.269-1.173,6.283.669,8.3,4.343.638,1.16,1.36,2.475,2.361,3.986.506.763.987,1.583,1.452,2.376,1.274,2.17,2.59,4.415,4.48,5.571,2.158,1.32,4.732,1.037,7,.786a61.012,61.012,0,0,0,7.536-1.247,62.021,62.021,0,0,1,7.619-1.261l.086.785a60.893,60.893,0,0,0-7.534,1.247,61.815,61.815,0,0,1-7.62,1.261,26.98,26.98,0,0,1-2.976.214" fill="#fff"/>
    <path id="Trazado_15" data-name="Trazado 15" d="M229.206,85.485A8.463,8.463,0,0,1,224.7,84.38c-2.051-1.255-3.416-3.582-4.736-5.832-.46-.785-.936-1.6-1.43-2.341-1.018-1.537-1.749-2.867-2.393-4.039-2.01-3.657-2.762-5.025-7.481-3.972L208.5,67.5c5.241-1.166,6.25.667,8.258,4.322.637,1.161,1.361,2.477,2.363,3.989.505.762.986,1.582,1.451,2.374,1.276,2.175,2.6,4.423,4.493,5.586,2.169,1.327,4.864,1.03,7.031.792a61.2,61.2,0,0,0,7.539-1.248,61.772,61.772,0,0,1,7.615-1.26l.078.705a61.616,61.616,0,0,0-7.54,1.248,61.762,61.762,0,0,1-7.615,1.261,26.86,26.86,0,0,1-2.97.213" fill="#fff"/>
    <path id="Trazado_16" data-name="Trazado 16" d="M229.207,89.542a8.4,8.4,0,0,1-4.488-1.1c-2.042-1.249-3.4-3.57-4.722-5.817-.461-.785-.937-1.6-1.432-2.343-1.017-1.535-1.748-2.865-2.392-4.036-2.019-3.676-2.775-5.05-7.524-3.993l-.137-.615c5.215-1.164,6.216.665,8.215,4.3.637,1.162,1.361,2.478,2.365,3.993.5.759.984,1.58,1.449,2.372,1.279,2.178,2.6,4.431,4.507,5.6,2.181,1.334,4.884,1.036,7.055.8a61.423,61.423,0,0,0,7.543-1.248,61.733,61.733,0,0,1,7.611-1.261l.069.628a61.483,61.483,0,0,0-7.544,1.248,61.639,61.639,0,0,1-7.61,1.261,27.062,27.062,0,0,1-2.965.211" fill="#fff"/>
    <path id="Trazado_17" data-name="Trazado 17" d="M229.208,93.6a8.372,8.372,0,0,1-4.469-1.095c-2.033-1.243-3.393-3.561-4.709-5.8-.46-.787-.936-1.6-1.432-2.347-1.017-1.532-1.746-2.86-2.39-4.032-1.973-3.591-2.79-5.077-7.567-4.012l-.12-.539c5.183-1.155,6.181.663,8.171,4.285.639,1.162,1.363,2.479,2.367,3.994.5.759.984,1.578,1.448,2.371,1.281,2.181,2.6,4.44,4.52,5.612,2.193,1.341,4.9,1.043,7.08.8a61.038,61.038,0,0,0,7.548-1.249,61.705,61.705,0,0,1,7.607-1.258l.06.548a61.5,61.5,0,0,0-7.548,1.249,61.6,61.6,0,0,1-7.607,1.261,27.173,27.173,0,0,1-2.959.212" fill="#fff"/>
    <path id="Trazado_18" data-name="Trazado 18" d="M229.209,97.659a8.341,8.341,0,0,1-4.449-1.087c-2.026-1.24-3.383-3.553-4.7-5.791-.46-.786-.937-1.6-1.433-2.346-1.016-1.533-1.745-2.86-2.389-4.031-1.982-3.608-2.8-5.1-7.61-4.03l-.1-.463c5.153-1.15,6.148.661,8.128,4.265.639,1.163,1.364,2.481,2.368,4,.5.759.984,1.577,1.448,2.369,1.283,2.187,2.61,4.448,4.534,5.626,2.2,1.348,4.921,1.05,7.1.809a61.249,61.249,0,0,0,7.552-1.25,61.642,61.642,0,0,1,7.6-1.258l.051.47a61.481,61.481,0,0,0-7.552,1.25,61.641,61.641,0,0,1-7.6,1.259,26.854,26.854,0,0,1-2.954.211" fill="#fff"/>
    <path id="Trazado_19" data-name="Trazado 19" d="M229.209,101.718a8.315,8.315,0,0,1-4.429-1.082c-2.016-1.234-3.371-3.543-4.681-5.776-.461-.787-.939-1.6-1.436-2.349-1.015-1.531-1.743-2.857-2.386-4.028-1.993-3.627-2.817-5.127-7.653-4.05l-.086-.385c5.125-1.142,6.053.545,8.085,4.245.64,1.163,1.363,2.482,2.37,4,.5.758.983,1.576,1.446,2.367,1.286,2.191,2.615,4.457,4.547,5.639,2.216,1.357,4.941,1.056,7.129.815a61.316,61.316,0,0,0,7.558-1.251,61.784,61.784,0,0,1,7.6-1.258l.042.393a61.323,61.323,0,0,0-7.555,1.25,61.612,61.612,0,0,1-7.6,1.258,26.772,26.772,0,0,1-2.95.212" fill="#fff"/>
    <path id="Trazado_20" data-name="Trazado 20" d="M229.21,105.776A8.271,8.271,0,0,1,224.8,104.7c-2.008-1.229-3.361-3.533-4.668-5.762-.462-.788-.939-1.6-1.436-2.351-1.014-1.53-1.743-2.856-2.385-4.025-2-3.645-2.832-5.154-7.7-4.07l-.068-.307c5.1-1.137,6.018.544,8.041,4.225.64,1.164,1.365,2.484,2.372,4,.5.757.981,1.574,1.445,2.364,1.288,2.2,2.619,4.466,4.561,5.654,2.226,1.363,4.959,1.061,7.154.82A61.423,61.423,0,0,0,239.681,104a61.779,61.779,0,0,1,7.593-1.257l.035.313a61.47,61.47,0,0,0-7.56,1.253,62.07,62.07,0,0,1-7.595,1.256,26.446,26.446,0,0,1-2.944.211" fill="#fff"/>
    <path id="Trazado_21" data-name="Trazado 21" d="M229.211,109.834a8.242,8.242,0,0,1-4.39-1.069c-2-1.223-3.348-3.525-4.654-5.748-.462-.788-.939-1.6-1.437-2.353-1.014-1.53-1.742-2.853-2.384-4.023-2.013-3.662-2.847-5.181-7.739-4.09l-.052-.231c5.067-1.129,5.985.543,8,4.206.64,1.165,1.365,2.487,2.373,4.007.5.757.981,1.572,1.444,2.363,1.291,2.2,2.625,4.475,4.574,5.667,2.239,1.37,4.979,1.067,7.179.826a61.42,61.42,0,0,0,7.566-1.253,61.762,61.762,0,0,1,7.589-1.256l.026.235a61.557,61.557,0,0,0-7.565,1.253,61.785,61.785,0,0,1-7.59,1.256,26.619,26.619,0,0,1-2.939.21" fill="#fff"/>
    <path id="Trazado_22" data-name="Trazado 22" d="M215.365,123.358V139.05a43.551,43.551,0,0,0,.545,7.232,5.766,5.766,0,0,0,1.538,2.6,6.386,6.386,0,0,0,2.785,1.449,18.809,18.809,0,0,0,4.7.5h15.575V148.1H225.169a11.7,11.7,0,0,1-2.883-.3,4.676,4.676,0,0,1-2.26-1.253,4.91,4.91,0,0,1-1.2-2.3,12.439,12.439,0,0,1-.3-2.949V123.358Z" fill="#fff"/>
    <rect id="Rectángulo_60" data-name="Rectángulo 60" width="3.163" height="27.475" transform="translate(251.318 123.358)" fill="#fff"/>
    <path id="Trazado_23" data-name="Trazado 23" d="M294.906,123.358H265.289v2.771h13.227v24.7h3.163v-24.7h13.227Z" fill="#fff"/>
    <path id="Trazado_24" data-name="Trazado 24" d="M330.908,123.358l-11.624,15.6-11.541-15.6h-3.22l13.085,17.175v10.3h3.163v-10.3L334,123.358Z" fill="#fff"/>
  </g>
</svg>
