<svg xmlns="http://www.w3.org/2000/svg" width="19.513" height="19.513" viewBox="0 0 19.513 19.513">
  <g id="Grupo_246" data-name="Grupo 246" transform="translate(-1403.536 -1051.831)">
    <path id="Trazado_86" data-name="Trazado 86" d="M1418.459,1055.315a1.144,1.144,0,1,0,1.144,1.143,1.145,1.145,0,0,0-1.144-1.143" fill="#fff"/>
    <path id="Trazado_87" data-name="Trazado 87" d="M1413.372,1056.782a4.805,4.805,0,1,0,4.8,4.808h0a4.813,4.813,0,0,0-4.8-4.807m0,7.886a3.078,3.078,0,1,1,3.08-3.079,3.078,3.078,0,0,1-3.08,3.079" fill="#fff"/>
    <path id="Trazado_88" data-name="Trazado 88" d="M1417.188,1071.344H1409.4a5.867,5.867,0,0,1-5.86-5.862v-7.79a5.867,5.867,0,0,1,5.86-5.861h7.792a5.87,5.87,0,0,1,5.861,5.861v7.79a5.87,5.87,0,0,1-5.861,5.862m-7.792-17.677a4.03,4.03,0,0,0-4.025,4.025v7.79a4.031,4.031,0,0,0,4.025,4.026h7.792a4.031,4.031,0,0,0,4.025-4.026v-7.79a4.031,4.031,0,0,0-4.025-4.025Z" fill="#fff"/>
  </g>
</svg>
