<svg xmlns="http://www.w3.org/2000/svg" width="23.707" height="19.515" viewBox="0 0 23.707 19.515">
  <path id="Trazado_91" data-name="Trazado 91" d="M1461.966,1054.17a9.762,9.762,0,0,1-2.4.684c.384-.067.951-.763,1.178-1.045a4.41,4.41,0,0,0,.8-1.452c.022-.041.036-.093,0-.124a.138.138,0,0,0-.128.01,12.223,12.223,0,0,1-2.841,1.089.191.191,0,0,1-.2-.052,2.28,2.28,0,0,0-.245-.256,5.046,5.046,0,0,0-1.377-.843,4.8,4.8,0,0,0-2.113-.34,5.04,5.04,0,0,0-2,.566,5.154,5.154,0,0,0-1.617,1.321,4.966,4.966,0,0,0-.965,1.933,5.253,5.253,0,0,0-.051,2.041c.016.114.005.132-.1.114a15.2,15.2,0,0,1-9.769-4.97c-.112-.133-.176-.133-.269.011a4.951,4.951,0,0,0,.844,5.85c.193.183.389.363.6.53a4.984,4.984,0,0,1-1.886-.53c-.114-.071-.171-.03-.182.1a2.973,2.973,0,0,0,.032.558,5.007,5.007,0,0,0,3.086,3.993,2.955,2.955,0,0,0,.627.192,5.6,5.6,0,0,1-1.849.058c-.133-.026-.187.041-.133.17a5.193,5.193,0,0,0,3.884,3.252c.176.033.352.033.529.074-.011.015-.02.015-.03.03-.436.663-1.948,1.16-2.65,1.406a9.488,9.488,0,0,1-4.03.515c-.216-.031-.264-.029-.32,0s-.008.09.062.144c.275.183.554.343.84.5a13.253,13.253,0,0,0,2.693,1.078,14.344,14.344,0,0,0,13.924-3.256c2.854-2.835,3.854-6.746,3.854-10.661,0-.153.181-.238.288-.319a9.352,9.352,0,0,0,1.9-1.971.591.591,0,0,0,.125-.377v-.021c0-.062-.005-.044-.1,0" transform="translate(-1438.36 -1051.831)" fill="#fff"/>
</svg>
